
<svg xmlns="http://www.w3.org/2000/svg" version="1.1">
    <rect xmlns="http://www.w3.org/2000/svg" width="240" height="101" rx="10" ry="10"></rect>
    <path transform="matrix(3.9856513268159133,0,0,3.9856513268159133,17.528897583749057,-0.08768253511167146)" fill="#ffffff" d="M5.62 16.48 l-0.08 -1.84 c0.34 0 2.6 0.04 3 0.1 l-0.14 4.86 l-1.22 0.54 l-2.24 0 l-2.6 0.08 l-0.72 -0.6 l-0.82 -1.42 l0 -2.66 l-0.18 -3.34 l0.08 -3.06 l0.28 -3.26 l2.06 -0.64 l3.2 -0.12 l0.4 0.02 l0.4 0.08 l1.32 0.52 l0 1.02 l0.04 3.06 l-0.1 0.74 l-1.36 0.2 l-1.46 -0.2 l-0.18 -2.38 l-0.4 -0.3 l-0.92 0.14 l-0.3 1.16 c0 0.22 0.06 1.2 0.06 2.1 c0.04 0.54 0.06 1.12 0.06 1.78 c0 0.9 0.04 1.72 0.1 2.48 c0.04 1.3 0.18 2.72 0.16 3.22 l1.48 0.04 z M16.5 6.16 l0.38 2.7 l-0.02 0.08 c0 0.02 -0.08 0.96 -0.12 1.9 c-0.04 0.54 -0.08 1.18 -0.1 1.88 l-0.72 1.28 l-1.92 0.64 l-1.7 0.08 l0.28 3.36 l0.1 1.7 l-1.38 0.16 c-0.14 0 -0.38 0.02 -0.6 0.04 c-0.14 0.02 -0.28 0.02 -0.42 0.02 l-0.7 -0.12 l0 -3.04 l-0.12 -1.98 c-0.02 -0.42 -0.02 -0.8 -0.02 -1.14 c-0.02 -0.62 -0.02 -1.22 -0.02 -1.44 l0 -4.62 l0.08 -2.36 l0.78 0 c0.46 0 1 -0.02 1.5 -0.02 c0.98 0 2.02 -0.04 2.28 0.02 c0.22 0.06 0.66 0.1 1.04 0.16 l0.7 0.12 z M13.68 12.68 l0.3 -0.3 c0 -0.32 0.1 -2.02 0.1 -2.22 s-0.18 -0.9 -0.22 -1.1 l-0.48 -0.52 l-0.68 -0.16 l-1.36 0 l-0.12 0.34 l-0.08 1.44 l0.16 2.52 l0.8 0.16 z M24.78 6.16 l0.38 2.7 l-0.02 0.08 c0 0.02 -0.08 0.96 -0.12 1.9 c-0.04 0.54 -0.08 1.18 -0.1 1.88 l-0.72 1.28 l-1.92 0.64 l-1.7 0.08 l0.28 3.36 l0.1 1.7 l-1.38 0.16 c-0.14 0 -0.38 0.02 -0.6 0.04 c-0.14 0.02 -0.28 0.02 -0.42 0.02 l-0.7 -0.12 l0 -3.04 l-0.12 -1.98 c-0.02 -0.42 -0.02 -0.8 -0.02 -1.14 c-0.02 -0.62 -0.02 -1.22 -0.02 -1.44 l0 -4.62 l0.08 -2.36 l0.78 0 c0.46 0 1 -0.02 1.5 -0.02 c0.98 0 2.02 -0.04 2.28 0.02 c0.22 0.06 0.66 0.1 1.04 0.16 l0.7 0.12 z M21.96 12.68 l0.3 -0.3 c0 -0.32 0.1 -2.02 0.1 -2.22 s-0.18 -0.9 -0.22 -1.1 l-0.48 -0.52 l-0.68 -0.16 l-1.36 0 l-0.12 0.34 l-0.08 1.44 l0.16 2.52 l0.8 0.16 z M26.3 5.859999999999999 l0.58 -0.54 l0 0 l1.88 -0.28 l3.94 0.28 l0.54 0.54 l0.5 0.8 l0.14 3.48 l-2.94 0.28 l-0.1 -3.48 l-0.08 -0.34 l-0.94 -0.1 l-0.84 0.84 l0.16 9.06 l0.54 0.26 l2.96 0.14 l0 -1.32 l-3.04 0.04 l0.08 -1 l0.2 -2.66 l3.36 -0.22 l0.64 0.1 l0.02 4.56 l-0.08 3.6 l-3.34 0.38 l-2.68 -0.24 l-1.26 -0.84 l-0.28 -0.92 l-0.08 -10.98 z M35.32 19.92 l-0.04 -6.94 l0.08 -0.74 l-0.04 -0.74 l0.1 -4.42 l0.18 -1.72 l6.5 0.12 l0.1 3.9 l-4.26 0 l-0.08 2.5 l3.26 -0.06 l0 0.22 l0.1 1.7 l-3.04 0.06 l0.1 2.96 l4.06 0.2 l0 3.08 z M43.38 5.26 l2.56 0.08 l2.16 10.14 l0.18 -1.06 l-0.58 -9.1 l2.22 -0.04 l0.88 0.2 l-0.4 14.4 l-1.78 0.24 l-1.78 -0.1 l-1.18 -8.78 l-0.42 -1.3 l0.06 10.04 l-2.06 0.18 l-0.1 -8.58 z">
    </path>
</svg>